inDegrees=yes
name=ik_lifting_orientations
DataType=double
version=3
OpenSimVersion=4.5-2024-01-10-34fd6af
endheader
time	pelvis_tilt	pelvis_list	pelvis_rotation	pelvis_tx	pelvis_ty	pelvis_tz	hip_flexion_r	hip_adduction_r	hip_rotation_r	knee_angle_r	knee_angle_r_beta	ankle_angle_r	subtalar_angle_r	mtp_angle_r	hip_flexion_l	hip_adduction_l	hip_rotation_l	knee_angle_l	knee_angle_l_beta	ankle_angle_l	subtalar_angle_l	mtp_angle_l	lumbar_extension	lumbar_bending	lumbar_rotation	arm_flex_r	arm_add_r	arm_rot_r	elbow_flex_r	pro_sup_r	wrist_flex_r	wrist_dev_r	arm_flex_l	arm_add_l	arm_rot_l	elbow_flex_l	pro_sup_l	wrist_flex_l	wrist_dev_l
2.27	-0.1492884935756748	0.9039974171281648	-87.77555367889393	0	0.9399999998679526	0	45.01362840297365	-10.19343807018386	0	59.91989271094734	1.045799415247782	-5.055900803633374	0	0	45.01362840297365	-10.19343807018386	0	59.91989271094734	1.045799415247782	-5.055900803633374	0	0	0.4599524635084787	0.4661677789102579	-11.31283496561896	138.0876993597082	41.86977795466064	-7.942104620676579	22.3977854235577	1.74051564149335	0	0	0	-11.57097567601329	0	88.28326398685016	1.74051564149335	0	0
2.28	-0.1623929361871717	0.85597173164963	-87.8074991388157	0	0.9399999998679526	0	45.01361840335986	-10.19294194263198	0	59.91993888396759	1.045800221119011	-5.055713805634016	0	0	45.01361840335986	-10.19294194263198	0	59.91993888396759	1.045800221119011	-5.055713805634016	0	0	-0.07247274662053126	0.514533310964408	-11.216702588382	140.954901934196	42.60800503971535	-9.216349377818588	19.25075683280992	1.739627025505815	0	0	0	-11.5722643408939	0	88.28414036539363	1.739627025505815	0	0
2.29	-0.1436849348594912	0.7395709514751034	-87.79705298725372	0	0.9399999998679526	0	45.01360917392761	-10.19248449121409	0	59.91998148231892	1.045800964600498	-5.055541489006146	0	0	45.01360917392761	-10.19248449121409	0	59.91998148231892	1.045800964600498	-5.055541489006146	0	0	-0.5867127748821822	0.5227102799591354	-11.15476956538926	142.7979619171595	42.99372459381654	-10.18151734908804	17.62168738401156	1.738806861497656	0	0	0	-11.57345366324279	0	88.28494923463627	1.738806861497656	0	0
2.3	-0.1568290006769074	0.740533007483786	-88.04155413331301	0	0.9399999998679526	0	45.01359904423968	-10.19198268532977	0	59.92002819850416	1.045801779951744	-5.055352559742058	0	0	45.01359904423968	-10.19198268532977	0	59.92002819850416	1.045801779951744	-5.055352559742058	0	0	-1.012461563438088	0.5598755095943584	-10.90825536593126	144.0209309505135	43.12905087162881	-10.80362878682063	16.03107994899561	1.737906834455559	0	0	0	-11.57475856141128	0	88.28583686708809	1.737906834455559	0	0
2.31	-0.1647014309387145	0.669271881629262	-88.29267482957033	0	0.9399999998679526	0	45.01358823180858	-10.19144734095971	0	59.92007801714082	1.045802649450983	-5.055151112960566	0	0	45.01358823180858	-10.19144734095971	0	59.92007801714082	1.045802649450983	-5.055151112960566	0	0	-1.654503700488075	0.5971840045258686	-10.59834066120971	144.9991068003185	43.3602293053461	-11.30604458269509	14.8568002666419	1.736946327171963	0	0	0	-11.57615084401214	0	88.28678414688196	1.736946327171963	0	0
2.32	-0.1772480595991935	0.6635352194521291	-88.48534444432849	0	0.9399999998679526	0	45.01357854050406	-10.19096911249601	0	59.9201227270432	1.045803429785987	-5.054971358270247	0	0	45.01357854050406	-10.19096911249601	0	59.9201227270432	1.045803429785987	-5.054971358270247	0	0	-2.217825176680221	0.6261150748259184	-10.33844676620865	147.8378641160934	44.09780357026062	-13.104565649545	12.2956657384516	1.736084844701508	0	0	0	-11.57740021220051	0	88.28763376559695	1.736084844701508	0	0
2.33	-0.174664986359872	0.6135820815225859	-88.61106991897805	0	0.9399999998679526	0	45.01356509138778	-10.1903064193583	0	59.92018475002346	1.045804512291205	-5.054722463767178	0	0	45.01356509138778	-10.1903064193583	0	59.92018475002346	1.045804512291205	-5.054722463767178	0	0	-2.523231530805917	0.6265359871017936	-10.15481732733306	151.3726079683517	44.92693668812697	-15.28561937764999	9.267431221436876	1.734889266063779	0	0	0	-11.57913406047669	0	88.28881287953939	1.734889266063779	0	0
2.34	-0.1881090455787541	0.5460702681653936	-88.74786363607078	0	0.9399999998679526	0	45.01355432653325	-10.18977757869084	0	59.92023443277809	1.045805379418854	-5.054524061941052	0	0	45.01355432653325	-10.18977757869084	0	59.92023443277809	1.045805379418854	-5.054524061941052	0	0	-2.954780438798966	0.6397549357116362	-9.886495802047701	153.8154219003116	45.23681401435508	-16.64369929008877	7.24641337812889	1.733931832287222	0	0	0	-11.5805230383427	0	88.28975712821455	1.733931832287222	0	0
2.35	-0.2035097260701455	0.6072961613783767	-88.93355009426794	0	0.9399999998679526	0	45.01354804976792	-10.18946953122245	0	59.92026339742564	1.045805884947321	-5.054408552363831	0	0	45.01354804976792	-10.18946953122245	0	59.92026339742564	1.045805884947321	-5.054408552363831	0	0	-3.21541628987199	0.6640732454115095	-9.529768937770747	154.4577250215409	45.28926305379967	-16.98407408501867	6.503457686619726	1.733373536194032	0	0	0	-11.58133298942744	0	88.29030773585171	1.733373536194032	0	0
2.36	-0.2120721483805607	0.6759441810796478	-89.05036467440036	0	0.9399999998679526	0	45.01353790658343	-10.18897210678064	0	59.92031017838784	1.045806701429139	-5.054222129092311	0	0	45.01353790658343	-10.18897210678064	0	59.92031017838784	1.045806701429139	-5.054222129092311	0	0	-3.672128030480579	0.6424973056739994	-8.38236100498707	153.8888126708828	44.88469407898397	-15.84868773843473	6.090356601660699	1.732471397602823	0	0	0	-11.58264163191839	0	88.2911974508329	1.732471397602823	0	0
2.37	-0.2413115024393384	0.8032072364631798	-89.29815130353846	0	0.9399999998679526	0	45.01352978977733	-10.18857474051583	0	59.92034762110079	1.04580735492776	-5.054073312349714	0	0	45.01352978977733	-10.18857474051583	0	59.92034762110079	1.04580735492776	-5.054073312349714	0	0	-4.112049406547433	0.6697388712984556	-7.81443416273472	154.388241025565	44.90077529467722	-15.97585423194035	5.42237032388065	1.731749324441678	0	0	0	-11.58368921935742	0	88.29190958012624	1.731749324441678	0	0
2.38	-0.245130490218061	0.7992465896263092	-89.36276209143723	0	0.9399999998679526	0	45.01351942351307	-10.18806839428243	0	59.92039546741669	1.045808190003508	-5.05388384172293	0	0	45.01351942351307	-10.18806839428243	0	59.92039546741669	1.045808190003508	-5.05388384172293	0	0	-4.484686937640927	0.6763711419451262	-7.695307274544253	155.8701774493881	45.12360939084111	-16.92794046611264	4.159066745416682	1.730826800116656	0	0	0	-11.58502796839486	0	88.29281940013314	1.730826800116656	0	0
2.39	-0.252398800739694	0.853939613347846	-89.42078469065875	0	0.9399999998679526	0	45.01351021912878	-10.18761988969514	0	59.92043797782924	1.045808931950173	-5.053716165735489	0	0	45.01351021912878	-10.18761988969514	0	59.92043797782924	1.045808931950173	-5.053716165735489	0	0	-4.67168831223062	0.7026553056237897	-7.692590591169036	157.2233530866934	45.32480149749183	-17.95397523229932	2.81956572306781	1.730007342946953	0	0	0	-11.58621749279619	0	88.29362757236629	1.730007342946953	0	0
2.4	-0.256198539965581	0.9284582567664766	-89.46493913173039	0	0.9399999998679526	0	45.01350778089921	-10.18750144988788	0	59.9204492584912	1.045809128834866	-5.053671923672707	0	0	45.01350778089921	-10.18750144988788	0	59.9204492584912	1.045809128834866	-5.053671923672707	0	0	-5.006174457332207	0.7523807311865355	-7.569119955374616	157.3327869852849	45.26201409055757	-17.82278208724454	2.495152218854118	1.729790103630763	0	0	0	-11.58653303292969	0	88.29384182003675	1.729790103630763	0	0
2.41	-0.2800151990140067	0.9366441172268756	-89.64019599589277	0	0.9399999998679526	0	45.01349930144356	-10.18708881188978	0	59.9204884035091	1.045809812044314	-5.053517771189153	0	0	45.01349930144356	-10.18708881188978	0	59.9204884035091	1.045809812044314	-5.053517771189153	0	0	-5.65694226422433	0.7923112202271519	-7.389888355733799	157.8591138721033	45.2602335338735	-17.83649499350665	2.210356149357558	1.729035174772357	0	0	0	-11.58762883342955	0	88.29458635259651	1.729035174772357	0	0
2.42	-0.2859771731824381	0.9859483677916463	-89.79718168494583	0	0.9399999998679526	0	45.01349695795305	-10.18697536919858	0	59.92049926077338	1.045810001539324	-5.05347544378925	0	0	45.01349695795305	-10.18697536919858	0	59.92049926077338	1.045810001539324	-5.05347544378925	0	0	-6.037022483905249	0.8169608152489639	-7.605235634394755	157.8479571000246	45.30859790581761	-17.81980275498264	2.457689442087041	1.728826229168955	0	0	0	-11.58793249109397	0	88.29479242077575	1.728826229168955	0	0
2.43	-0.2997570865704223	0.9753960440161422	-89.92217704483784	0	0.9399999998679526	0	45.01348771072337	-10.18652669455178	0	59.92054198624622	1.045810747239499	-5.053308007361423	0	0	45.01348771072337	-10.18652669455178	0	59.92054198624622	1.045810747239499	-5.053308007361423	0	0	-6.30449488955742	0.8762618905550487	-7.974505852574834	158.6011021567073	45.50662397202384	-18.48602415374156	2.223108828239929	1.728002526214262	0	0	0	-11.58912855751632	0	88.29560478034922	1.728002526214262	0	0
2.44	-0.2893805080834759	0.9810496995731941	-89.91621466323215	0	0.9399999998679526	0	45.01347869749176	-10.18609030501985	0	59.92058365180056	1.045811474440607	-5.05314528643686	0	0	45.01347869749176	-10.18609030501985	0	59.92058365180056	1.045811474440607	-5.05314528643686	0	0	-6.67484813588166	0.9088057489384089	-8.23905511206352	159.6247345047364	45.63712589837892	-19.14650155725642	1.594868985143543	1.727199391187273	0	0	0	-11.59029503908253	0	88.29639685525464	1.727199391187273	0	0
2.45	-0.3001564917932599	0.9741737915014683	-89.92197177801711	0	0.9399999998679526	0	45.01346859825255	-10.18560192071993	0	59.92063032169838	1.045812288983986	-5.052963297438647	0	0	45.01346859825255	-10.18560192071993	0	59.92063032169838	1.045812288983986	-5.052963297438647	0	0	-7.113296299821985	0.9663641259208662	-8.146658747909845	160.5426773261847	45.67710520395396	-19.442642571457	0.8841501137817452	1.726299459357195	0	0	0	-11.59160207111944	0	88.29728439396054	1.726299459357195	0	0
2.46	-0.2739072303800377	0.9926653727827958	-89.74073314573056	0	0.9399999998679526	0	45.01346046488222	-10.18520939436887	0	59.92066792703984	1.045812945321011	-5.052817137498305	0	0	45.01346046488222	-10.18520939436887	0	59.92066792703984	1.045812945321011	-5.052817137498305	0	0	-7.461019333954643	1.0251459861403	-8.398832631646522	161.1368444057889	45.8039974590575	-19.69394327955832	0.5608379791823322	1.725574455989922	0	0	0	-11.59265530302093	0	88.29799941318831	1.725574455989922	0	0
2.47	-0.2796403553733594	0.9726112617875129	-89.60142097752694	0	0.9399999998679526	0	45.01345676342834	-10.18503087855292	0	59.92068503440375	1.045813243900837	-5.052750694474291	0	0	45.01345676342834	-10.18503087855292	0	59.92068503440375	1.045813243900837	-5.052750694474291	0	0	-7.585319657310369	1.106514183019371	-8.789953061359075	161.1862181365597	46.00998750970972	-19.73662974015092	0.3998264437231678	1.725244524765309	0	0	0	-11.59313456499706	0	88.2983248008762	1.725244524765309	0	0
2.48	-0.2762817832104517	0.9762850587092629	-89.47169552088127	0	0.9399999998679526	0	45.01344872738088	-10.18464331072335	0	59.92072215054698	1.045813891699742	-5.052606474795658	0	0	45.01344872738088	-10.18464331072335	0	59.92072215054698	1.045813891699742	-5.052606474795658	0	0	-7.90139692254023	1.180137123835457	-9.190792864299505	161.5892795830399	46.18443118687275	-20.01424856956039	0.2668984676213587	1.724528348082704	0	0	0	-11.59417471632366	0	88.29903111496921	1.724528348082704	0	0
